<mxfile host="app.diagrams.net" modified="2020-05-08T17:48:06.645Z" agent="5.0 (Macintosh; Intel Mac OS X 10_15_1) AppleWebKit/537.36 (KHTML, like Gecko) Chrome/81.0.4044.138 Safari/537.36" etag="FYWYRI1et9iZ1yRbtrD4" version="13.0.9" type="github" pages="4">
  <diagram id="Hax9ONlGdCbRYYsvzQXx" name="01 - mocks">
    <mxGraphModel dx="858" dy="422" grid="1" gridSize="10" guides="1" tooltips="1" connect="1" arrows="1" fold="1" page="1" pageScale="1" pageWidth="1920" pageHeight="1200" math="0" shadow="0">
      <root>
        <mxCell id="0" />
        <mxCell id="1" parent="0" />
        <mxCell id="4LGN2oHcvjhgaG8_lqXH-1" value="" style="strokeWidth=1;shadow=0;dashed=0;align=center;html=1;shape=mxgraph.mockup.containers.browserWindow;rSize=0;strokeColor=#666666;strokeColor2=#008cff;strokeColor3=#c4c4c4;mainText=,;recursiveResize=0;fontSize=16;" vertex="1" parent="1">
          <mxGeometry x="130" y="200" width="450" height="350" as="geometry" />
        </mxCell>
        <mxCell id="4LGN2oHcvjhgaG8_lqXH-2" value="Page 1" style="strokeWidth=1;shadow=0;dashed=0;align=center;html=1;shape=mxgraph.mockup.containers.anchor;fontSize=17;fontColor=#666666;align=left;" vertex="1" parent="4LGN2oHcvjhgaG8_lqXH-1">
          <mxGeometry x="60" y="12" width="110" height="26" as="geometry" />
        </mxCell>
        <mxCell id="4LGN2oHcvjhgaG8_lqXH-3" value="https://www.draw.io" style="strokeWidth=1;shadow=0;dashed=0;align=center;html=1;shape=mxgraph.mockup.containers.anchor;rSize=0;fontSize=17;fontColor=#666666;align=left;" vertex="1" parent="4LGN2oHcvjhgaG8_lqXH-1">
          <mxGeometry x="130" y="60" width="250" height="26" as="geometry" />
        </mxCell>
        <mxCell id="4LGN2oHcvjhgaG8_lqXH-4" value="" style="rounded=0;whiteSpace=wrap;html=1;fontSize=16;" vertex="1" parent="4LGN2oHcvjhgaG8_lqXH-1">
          <mxGeometry y="110" width="450" height="40" as="geometry" />
        </mxCell>
        <mxCell id="4LGN2oHcvjhgaG8_lqXH-5" value="GitTix" style="text;html=1;strokeColor=none;fillColor=none;align=center;verticalAlign=middle;whiteSpace=wrap;rounded=0;fontSize=16;" vertex="1" parent="4LGN2oHcvjhgaG8_lqXH-1">
          <mxGeometry x="20" y="120" width="40" height="20" as="geometry" />
        </mxCell>
        <mxCell id="4LGN2oHcvjhgaG8_lqXH-6" value="Sign In" style="text;html=1;strokeColor=none;fillColor=none;align=center;verticalAlign=middle;whiteSpace=wrap;rounded=0;fontSize=16;" vertex="1" parent="4LGN2oHcvjhgaG8_lqXH-1">
          <mxGeometry x="360" y="120" width="70" height="20" as="geometry" />
        </mxCell>
        <mxCell id="4LGN2oHcvjhgaG8_lqXH-7" value="Sign Up" style="text;html=1;strokeColor=none;fillColor=none;align=center;verticalAlign=middle;whiteSpace=wrap;rounded=0;fontSize=16;" vertex="1" parent="4LGN2oHcvjhgaG8_lqXH-1">
          <mxGeometry x="280" y="120" width="70" height="20" as="geometry" />
        </mxCell>
        <mxCell id="4LGN2oHcvjhgaG8_lqXH-8" value="Tickets For Sale" style="text;html=1;strokeColor=none;fillColor=none;align=left;verticalAlign=middle;whiteSpace=wrap;rounded=0;fontSize=19;fontStyle=1" vertex="1" parent="4LGN2oHcvjhgaG8_lqXH-1">
          <mxGeometry x="20" y="165" width="170" height="20" as="geometry" />
        </mxCell>
        <mxCell id="4LGN2oHcvjhgaG8_lqXH-9" value="&lt;u&gt;Basketball Game - $20&lt;br&gt;&lt;/u&gt;&lt;br&gt;&lt;u&gt;Classical Concert - $100&lt;br&gt;&lt;/u&gt;&lt;br&gt;&lt;u&gt;Rock Concert - $100&lt;br&gt;&lt;/u&gt;&lt;br&gt;&lt;u&gt;Football Game - $40&lt;/u&gt;" style="text;html=1;strokeColor=none;fillColor=none;align=left;verticalAlign=middle;whiteSpace=wrap;rounded=0;fontSize=14;fontStyle=0" vertex="1" parent="4LGN2oHcvjhgaG8_lqXH-1">
          <mxGeometry x="20" y="210" width="240" height="80" as="geometry" />
        </mxCell>
        <mxCell id="4LGN2oHcvjhgaG8_lqXH-10" value="" style="strokeWidth=1;shadow=0;dashed=0;align=center;html=1;shape=mxgraph.mockup.containers.browserWindow;rSize=0;strokeColor=#666666;strokeColor2=#008cff;strokeColor3=#c4c4c4;mainText=,;recursiveResize=0;fontSize=16;" vertex="1" parent="1">
          <mxGeometry x="600" y="200" width="450" height="350" as="geometry" />
        </mxCell>
        <mxCell id="4LGN2oHcvjhgaG8_lqXH-11" value="Page 1" style="strokeWidth=1;shadow=0;dashed=0;align=center;html=1;shape=mxgraph.mockup.containers.anchor;fontSize=17;fontColor=#666666;align=left;" vertex="1" parent="4LGN2oHcvjhgaG8_lqXH-10">
          <mxGeometry x="60" y="12" width="110" height="26" as="geometry" />
        </mxCell>
        <mxCell id="4LGN2oHcvjhgaG8_lqXH-12" value="https://www.draw.io" style="strokeWidth=1;shadow=0;dashed=0;align=center;html=1;shape=mxgraph.mockup.containers.anchor;rSize=0;fontSize=17;fontColor=#666666;align=left;" vertex="1" parent="4LGN2oHcvjhgaG8_lqXH-10">
          <mxGeometry x="130" y="60" width="250" height="26" as="geometry" />
        </mxCell>
        <mxCell id="4LGN2oHcvjhgaG8_lqXH-13" value="" style="rounded=0;whiteSpace=wrap;html=1;fontSize=16;" vertex="1" parent="4LGN2oHcvjhgaG8_lqXH-10">
          <mxGeometry y="110" width="450" height="40" as="geometry" />
        </mxCell>
        <mxCell id="4LGN2oHcvjhgaG8_lqXH-14" value="GitTix" style="text;html=1;strokeColor=none;fillColor=none;align=center;verticalAlign=middle;whiteSpace=wrap;rounded=0;fontSize=16;" vertex="1" parent="4LGN2oHcvjhgaG8_lqXH-10">
          <mxGeometry x="20" y="120" width="40" height="20" as="geometry" />
        </mxCell>
        <mxCell id="4LGN2oHcvjhgaG8_lqXH-15" value="Sign In" style="text;html=1;strokeColor=none;fillColor=none;align=center;verticalAlign=middle;whiteSpace=wrap;rounded=0;fontSize=16;" vertex="1" parent="4LGN2oHcvjhgaG8_lqXH-10">
          <mxGeometry x="360" y="120" width="70" height="20" as="geometry" />
        </mxCell>
        <mxCell id="4LGN2oHcvjhgaG8_lqXH-16" value="Sign Up" style="text;html=1;strokeColor=none;fillColor=none;align=center;verticalAlign=middle;whiteSpace=wrap;rounded=0;fontSize=16;" vertex="1" parent="4LGN2oHcvjhgaG8_lqXH-10">
          <mxGeometry x="280" y="120" width="70" height="20" as="geometry" />
        </mxCell>
        <mxCell id="4LGN2oHcvjhgaG8_lqXH-17" value="Email" style="text;html=1;strokeColor=none;fillColor=none;align=left;verticalAlign=middle;whiteSpace=wrap;rounded=0;fontSize=14;fontStyle=1" vertex="1" parent="4LGN2oHcvjhgaG8_lqXH-10">
          <mxGeometry x="20" y="190" width="40" height="20" as="geometry" />
        </mxCell>
        <mxCell id="4LGN2oHcvjhgaG8_lqXH-18" value="Password" style="text;html=1;strokeColor=none;fillColor=none;align=left;verticalAlign=middle;whiteSpace=wrap;rounded=0;fontSize=14;fontStyle=1" vertex="1" parent="4LGN2oHcvjhgaG8_lqXH-10">
          <mxGeometry x="20" y="245" width="40" height="20" as="geometry" />
        </mxCell>
        <mxCell id="4LGN2oHcvjhgaG8_lqXH-19" value="" style="rounded=0;whiteSpace=wrap;html=1;fontSize=14;align=left;" vertex="1" parent="4LGN2oHcvjhgaG8_lqXH-10">
          <mxGeometry x="20" y="210" width="190" height="25" as="geometry" />
        </mxCell>
        <mxCell id="4LGN2oHcvjhgaG8_lqXH-20" value="" style="rounded=0;whiteSpace=wrap;html=1;fontSize=14;align=left;" vertex="1" parent="4LGN2oHcvjhgaG8_lqXH-10">
          <mxGeometry x="20" y="265" width="190" height="25" as="geometry" />
        </mxCell>
        <mxCell id="4LGN2oHcvjhgaG8_lqXH-21" value="Sign Up" style="text;html=1;strokeColor=none;fillColor=none;align=left;verticalAlign=middle;whiteSpace=wrap;rounded=0;fontSize=19;fontStyle=1" vertex="1" parent="4LGN2oHcvjhgaG8_lqXH-10">
          <mxGeometry x="20" y="155" width="170" height="35" as="geometry" />
        </mxCell>
        <mxCell id="4LGN2oHcvjhgaG8_lqXH-22" value="Submit" style="rounded=1;whiteSpace=wrap;html=1;fontSize=14;align=center;fontStyle=1" vertex="1" parent="4LGN2oHcvjhgaG8_lqXH-10">
          <mxGeometry x="20" y="300" width="90" height="30" as="geometry" />
        </mxCell>
        <mxCell id="4LGN2oHcvjhgaG8_lqXH-23" value="" style="strokeWidth=1;shadow=0;dashed=0;align=center;html=1;shape=mxgraph.mockup.containers.browserWindow;rSize=0;strokeColor=#666666;strokeColor2=#008cff;strokeColor3=#c4c4c4;mainText=,;recursiveResize=0;fontSize=16;" vertex="1" parent="1">
          <mxGeometry x="1070" y="200" width="450" height="350" as="geometry" />
        </mxCell>
        <mxCell id="4LGN2oHcvjhgaG8_lqXH-24" value="Page 1" style="strokeWidth=1;shadow=0;dashed=0;align=center;html=1;shape=mxgraph.mockup.containers.anchor;fontSize=17;fontColor=#666666;align=left;" vertex="1" parent="4LGN2oHcvjhgaG8_lqXH-23">
          <mxGeometry x="60" y="12" width="110" height="26" as="geometry" />
        </mxCell>
        <mxCell id="4LGN2oHcvjhgaG8_lqXH-25" value="https://www.draw.io" style="strokeWidth=1;shadow=0;dashed=0;align=center;html=1;shape=mxgraph.mockup.containers.anchor;rSize=0;fontSize=17;fontColor=#666666;align=left;" vertex="1" parent="4LGN2oHcvjhgaG8_lqXH-23">
          <mxGeometry x="130" y="60" width="250" height="26" as="geometry" />
        </mxCell>
        <mxCell id="4LGN2oHcvjhgaG8_lqXH-26" value="" style="rounded=0;whiteSpace=wrap;html=1;fontSize=16;" vertex="1" parent="4LGN2oHcvjhgaG8_lqXH-23">
          <mxGeometry y="110" width="450" height="40" as="geometry" />
        </mxCell>
        <mxCell id="4LGN2oHcvjhgaG8_lqXH-27" value="GitTix" style="text;html=1;strokeColor=none;fillColor=none;align=center;verticalAlign=middle;whiteSpace=wrap;rounded=0;fontSize=16;" vertex="1" parent="4LGN2oHcvjhgaG8_lqXH-23">
          <mxGeometry x="20" y="120" width="40" height="20" as="geometry" />
        </mxCell>
        <mxCell id="4LGN2oHcvjhgaG8_lqXH-28" value="Sign In" style="text;html=1;strokeColor=none;fillColor=none;align=center;verticalAlign=middle;whiteSpace=wrap;rounded=0;fontSize=16;" vertex="1" parent="4LGN2oHcvjhgaG8_lqXH-23">
          <mxGeometry x="360" y="120" width="70" height="20" as="geometry" />
        </mxCell>
        <mxCell id="4LGN2oHcvjhgaG8_lqXH-29" value="Sign Up" style="text;html=1;strokeColor=none;fillColor=none;align=center;verticalAlign=middle;whiteSpace=wrap;rounded=0;fontSize=16;" vertex="1" parent="4LGN2oHcvjhgaG8_lqXH-23">
          <mxGeometry x="280" y="120" width="70" height="20" as="geometry" />
        </mxCell>
        <mxCell id="4LGN2oHcvjhgaG8_lqXH-30" value="Email" style="text;html=1;strokeColor=none;fillColor=none;align=left;verticalAlign=middle;whiteSpace=wrap;rounded=0;fontSize=14;fontStyle=1" vertex="1" parent="4LGN2oHcvjhgaG8_lqXH-23">
          <mxGeometry x="20" y="190" width="40" height="20" as="geometry" />
        </mxCell>
        <mxCell id="4LGN2oHcvjhgaG8_lqXH-31" value="Password" style="text;html=1;strokeColor=none;fillColor=none;align=left;verticalAlign=middle;whiteSpace=wrap;rounded=0;fontSize=14;fontStyle=1" vertex="1" parent="4LGN2oHcvjhgaG8_lqXH-23">
          <mxGeometry x="20" y="245" width="40" height="20" as="geometry" />
        </mxCell>
        <mxCell id="4LGN2oHcvjhgaG8_lqXH-32" value="" style="rounded=0;whiteSpace=wrap;html=1;fontSize=14;align=left;" vertex="1" parent="4LGN2oHcvjhgaG8_lqXH-23">
          <mxGeometry x="20" y="210" width="190" height="25" as="geometry" />
        </mxCell>
        <mxCell id="4LGN2oHcvjhgaG8_lqXH-33" value="" style="rounded=0;whiteSpace=wrap;html=1;fontSize=14;align=left;" vertex="1" parent="4LGN2oHcvjhgaG8_lqXH-23">
          <mxGeometry x="20" y="265" width="190" height="25" as="geometry" />
        </mxCell>
        <mxCell id="4LGN2oHcvjhgaG8_lqXH-34" value="Sign In" style="text;html=1;strokeColor=none;fillColor=none;align=left;verticalAlign=middle;whiteSpace=wrap;rounded=0;fontSize=19;fontStyle=1" vertex="1" parent="4LGN2oHcvjhgaG8_lqXH-23">
          <mxGeometry x="20" y="155" width="170" height="35" as="geometry" />
        </mxCell>
        <mxCell id="4LGN2oHcvjhgaG8_lqXH-35" value="Submit" style="rounded=1;whiteSpace=wrap;html=1;fontSize=14;align=center;fontStyle=1" vertex="1" parent="4LGN2oHcvjhgaG8_lqXH-23">
          <mxGeometry x="20" y="300" width="90" height="30" as="geometry" />
        </mxCell>
        <mxCell id="4LGN2oHcvjhgaG8_lqXH-36" value="" style="strokeWidth=1;shadow=0;dashed=0;align=center;html=1;shape=mxgraph.mockup.containers.browserWindow;rSize=0;strokeColor=#666666;strokeColor2=#008cff;strokeColor3=#c4c4c4;mainText=,;recursiveResize=0;fontSize=16;" vertex="1" parent="1">
          <mxGeometry x="1540" y="200" width="450" height="350" as="geometry" />
        </mxCell>
        <mxCell id="4LGN2oHcvjhgaG8_lqXH-37" value="Page 1" style="strokeWidth=1;shadow=0;dashed=0;align=center;html=1;shape=mxgraph.mockup.containers.anchor;fontSize=17;fontColor=#666666;align=left;" vertex="1" parent="4LGN2oHcvjhgaG8_lqXH-36">
          <mxGeometry x="60" y="12" width="110" height="26" as="geometry" />
        </mxCell>
        <mxCell id="4LGN2oHcvjhgaG8_lqXH-38" value="https://www.draw.io" style="strokeWidth=1;shadow=0;dashed=0;align=center;html=1;shape=mxgraph.mockup.containers.anchor;rSize=0;fontSize=17;fontColor=#666666;align=left;" vertex="1" parent="4LGN2oHcvjhgaG8_lqXH-36">
          <mxGeometry x="130" y="60" width="250" height="26" as="geometry" />
        </mxCell>
        <mxCell id="4LGN2oHcvjhgaG8_lqXH-39" value="" style="rounded=0;whiteSpace=wrap;html=1;fontSize=16;" vertex="1" parent="4LGN2oHcvjhgaG8_lqXH-36">
          <mxGeometry y="110" width="450" height="40" as="geometry" />
        </mxCell>
        <mxCell id="4LGN2oHcvjhgaG8_lqXH-40" value="GitTix" style="text;html=1;strokeColor=none;fillColor=none;align=center;verticalAlign=middle;whiteSpace=wrap;rounded=0;fontSize=16;" vertex="1" parent="4LGN2oHcvjhgaG8_lqXH-36">
          <mxGeometry x="20" y="120" width="40" height="20" as="geometry" />
        </mxCell>
        <mxCell id="4LGN2oHcvjhgaG8_lqXH-41" value="Sign Out" style="text;html=1;strokeColor=none;fillColor=none;align=center;verticalAlign=middle;whiteSpace=wrap;rounded=0;fontSize=16;" vertex="1" parent="4LGN2oHcvjhgaG8_lqXH-36">
          <mxGeometry x="360" y="120" width="70" height="20" as="geometry" />
        </mxCell>
        <mxCell id="4LGN2oHcvjhgaG8_lqXH-42" value="My Orders" style="text;html=1;strokeColor=none;fillColor=none;align=center;verticalAlign=middle;whiteSpace=wrap;rounded=0;fontSize=16;" vertex="1" parent="4LGN2oHcvjhgaG8_lqXH-36">
          <mxGeometry x="170" y="120" width="110" height="20" as="geometry" />
        </mxCell>
        <mxCell id="4LGN2oHcvjhgaG8_lqXH-43" value="Tickets For Sale" style="text;html=1;strokeColor=none;fillColor=none;align=left;verticalAlign=middle;whiteSpace=wrap;rounded=0;fontSize=19;fontStyle=1" vertex="1" parent="4LGN2oHcvjhgaG8_lqXH-36">
          <mxGeometry x="20" y="165" width="170" height="20" as="geometry" />
        </mxCell>
        <mxCell id="4LGN2oHcvjhgaG8_lqXH-44" value="&lt;u&gt;Basketball Game - $20&lt;br&gt;&lt;/u&gt;&lt;br&gt;&lt;u&gt;Classical Concert - $100&lt;br&gt;&lt;/u&gt;&lt;br&gt;&lt;u&gt;Rock Concert - $100&lt;br&gt;&lt;/u&gt;&lt;br&gt;&lt;u&gt;Football Game - $40&lt;/u&gt;" style="text;html=1;strokeColor=none;fillColor=none;align=left;verticalAlign=middle;whiteSpace=wrap;rounded=0;fontSize=14;fontStyle=0" vertex="1" parent="4LGN2oHcvjhgaG8_lqXH-36">
          <mxGeometry x="20" y="210" width="240" height="80" as="geometry" />
        </mxCell>
        <mxCell id="4LGN2oHcvjhgaG8_lqXH-45" value="Sell Tickets" style="text;html=1;strokeColor=none;fillColor=none;align=center;verticalAlign=middle;whiteSpace=wrap;rounded=0;fontSize=16;" vertex="1" parent="4LGN2oHcvjhgaG8_lqXH-36">
          <mxGeometry x="260" y="120" width="110" height="20" as="geometry" />
        </mxCell>
        <mxCell id="4LGN2oHcvjhgaG8_lqXH-46" value="" style="strokeWidth=1;shadow=0;dashed=0;align=center;html=1;shape=mxgraph.mockup.containers.browserWindow;rSize=0;strokeColor=#666666;strokeColor2=#008cff;strokeColor3=#c4c4c4;mainText=,;recursiveResize=0;fontSize=16;" vertex="1" parent="1">
          <mxGeometry x="2020" y="200" width="450" height="350" as="geometry" />
        </mxCell>
        <mxCell id="4LGN2oHcvjhgaG8_lqXH-47" value="Page 1" style="strokeWidth=1;shadow=0;dashed=0;align=center;html=1;shape=mxgraph.mockup.containers.anchor;fontSize=17;fontColor=#666666;align=left;" vertex="1" parent="4LGN2oHcvjhgaG8_lqXH-46">
          <mxGeometry x="60" y="12" width="110" height="26" as="geometry" />
        </mxCell>
        <mxCell id="4LGN2oHcvjhgaG8_lqXH-48" value="ticketing.dev/tickets/J2342jpkg" style="strokeWidth=1;shadow=0;dashed=0;align=center;html=1;shape=mxgraph.mockup.containers.anchor;rSize=0;fontSize=17;fontColor=#666666;align=left;" vertex="1" parent="4LGN2oHcvjhgaG8_lqXH-46">
          <mxGeometry x="130" y="60" width="250" height="26" as="geometry" />
        </mxCell>
        <mxCell id="4LGN2oHcvjhgaG8_lqXH-49" value="" style="rounded=0;whiteSpace=wrap;html=1;fontSize=16;" vertex="1" parent="4LGN2oHcvjhgaG8_lqXH-46">
          <mxGeometry y="110" width="450" height="40" as="geometry" />
        </mxCell>
        <mxCell id="4LGN2oHcvjhgaG8_lqXH-50" value="GitTix" style="text;html=1;strokeColor=none;fillColor=none;align=center;verticalAlign=middle;whiteSpace=wrap;rounded=0;fontSize=16;" vertex="1" parent="4LGN2oHcvjhgaG8_lqXH-46">
          <mxGeometry x="20" y="120" width="40" height="20" as="geometry" />
        </mxCell>
        <mxCell id="4LGN2oHcvjhgaG8_lqXH-51" value="Sign Out" style="text;html=1;strokeColor=none;fillColor=none;align=center;verticalAlign=middle;whiteSpace=wrap;rounded=0;fontSize=16;" vertex="1" parent="4LGN2oHcvjhgaG8_lqXH-46">
          <mxGeometry x="360" y="120" width="70" height="20" as="geometry" />
        </mxCell>
        <mxCell id="4LGN2oHcvjhgaG8_lqXH-52" value="My Orders" style="text;html=1;strokeColor=none;fillColor=none;align=center;verticalAlign=middle;whiteSpace=wrap;rounded=0;fontSize=16;" vertex="1" parent="4LGN2oHcvjhgaG8_lqXH-46">
          <mxGeometry x="170" y="120" width="110" height="20" as="geometry" />
        </mxCell>
        <mxCell id="4LGN2oHcvjhgaG8_lqXH-53" value="Rock Concert" style="text;html=1;strokeColor=none;fillColor=none;align=left;verticalAlign=middle;whiteSpace=wrap;rounded=0;fontSize=19;fontStyle=1" vertex="1" parent="4LGN2oHcvjhgaG8_lqXH-46">
          <mxGeometry x="20" y="165" width="170" height="20" as="geometry" />
        </mxCell>
        <mxCell id="4LGN2oHcvjhgaG8_lqXH-54" value="Price - $40&lt;br&gt;Status - Available&lt;br&gt;&lt;br&gt;" style="text;html=1;strokeColor=none;fillColor=none;align=left;verticalAlign=middle;whiteSpace=wrap;rounded=0;fontSize=14;fontStyle=0" vertex="1" parent="4LGN2oHcvjhgaG8_lqXH-46">
          <mxGeometry x="20" y="180" width="240" height="80" as="geometry" />
        </mxCell>
        <mxCell id="4LGN2oHcvjhgaG8_lqXH-55" value="Sell Tickets" style="text;html=1;strokeColor=none;fillColor=none;align=center;verticalAlign=middle;whiteSpace=wrap;rounded=0;fontSize=16;" vertex="1" parent="4LGN2oHcvjhgaG8_lqXH-46">
          <mxGeometry x="260" y="120" width="110" height="20" as="geometry" />
        </mxCell>
        <mxCell id="4LGN2oHcvjhgaG8_lqXH-56" value="Purchase" style="rounded=1;whiteSpace=wrap;html=1;fontSize=14;align=center;fontStyle=1" vertex="1" parent="4LGN2oHcvjhgaG8_lqXH-46">
          <mxGeometry x="20" y="235" width="100" height="25" as="geometry" />
        </mxCell>
        <mxCell id="4LGN2oHcvjhgaG8_lqXH-57" value="" style="strokeWidth=1;shadow=0;dashed=0;align=center;html=1;shape=mxgraph.mockup.containers.browserWindow;rSize=0;strokeColor=#666666;strokeColor2=#008cff;strokeColor3=#c4c4c4;mainText=,;recursiveResize=0;fontSize=16;" vertex="1" parent="1">
          <mxGeometry x="2500" y="200" width="450" height="350" as="geometry" />
        </mxCell>
        <mxCell id="4LGN2oHcvjhgaG8_lqXH-58" value="Page 1" style="strokeWidth=1;shadow=0;dashed=0;align=center;html=1;shape=mxgraph.mockup.containers.anchor;fontSize=17;fontColor=#666666;align=left;" vertex="1" parent="4LGN2oHcvjhgaG8_lqXH-57">
          <mxGeometry x="60" y="12" width="110" height="26" as="geometry" />
        </mxCell>
        <mxCell id="4LGN2oHcvjhgaG8_lqXH-59" value="/orders/alskdjfaksdjfkp" style="strokeWidth=1;shadow=0;dashed=0;align=center;html=1;shape=mxgraph.mockup.containers.anchor;rSize=0;fontSize=17;fontColor=#666666;align=left;" vertex="1" parent="4LGN2oHcvjhgaG8_lqXH-57">
          <mxGeometry x="130" y="60" width="250" height="26" as="geometry" />
        </mxCell>
        <mxCell id="4LGN2oHcvjhgaG8_lqXH-60" value="" style="rounded=0;whiteSpace=wrap;html=1;fontSize=16;" vertex="1" parent="4LGN2oHcvjhgaG8_lqXH-57">
          <mxGeometry y="110" width="450" height="40" as="geometry" />
        </mxCell>
        <mxCell id="4LGN2oHcvjhgaG8_lqXH-61" value="GitTix" style="text;html=1;strokeColor=none;fillColor=none;align=center;verticalAlign=middle;whiteSpace=wrap;rounded=0;fontSize=16;" vertex="1" parent="4LGN2oHcvjhgaG8_lqXH-57">
          <mxGeometry x="20" y="120" width="40" height="20" as="geometry" />
        </mxCell>
        <mxCell id="4LGN2oHcvjhgaG8_lqXH-62" value="Sign Out" style="text;html=1;strokeColor=none;fillColor=none;align=center;verticalAlign=middle;whiteSpace=wrap;rounded=0;fontSize=16;" vertex="1" parent="4LGN2oHcvjhgaG8_lqXH-57">
          <mxGeometry x="360" y="120" width="70" height="20" as="geometry" />
        </mxCell>
        <mxCell id="4LGN2oHcvjhgaG8_lqXH-63" value="My Orders" style="text;html=1;strokeColor=none;fillColor=none;align=center;verticalAlign=middle;whiteSpace=wrap;rounded=0;fontSize=16;" vertex="1" parent="4LGN2oHcvjhgaG8_lqXH-57">
          <mxGeometry x="170" y="120" width="110" height="20" as="geometry" />
        </mxCell>
        <mxCell id="4LGN2oHcvjhgaG8_lqXH-64" value="Purchasing Rock Concert" style="text;html=1;strokeColor=none;fillColor=none;align=left;verticalAlign=middle;whiteSpace=wrap;rounded=0;fontSize=19;fontStyle=1" vertex="1" parent="4LGN2oHcvjhgaG8_lqXH-57">
          <mxGeometry x="20" y="165" width="290" height="20" as="geometry" />
        </mxCell>
        <mxCell id="4LGN2oHcvjhgaG8_lqXH-65" value="Sell Tickets" style="text;html=1;strokeColor=none;fillColor=none;align=center;verticalAlign=middle;whiteSpace=wrap;rounded=0;fontSize=16;" vertex="1" parent="4LGN2oHcvjhgaG8_lqXH-57">
          <mxGeometry x="260" y="120" width="110" height="20" as="geometry" />
        </mxCell>
        <mxCell id="4LGN2oHcvjhgaG8_lqXH-66" value="Pay" style="rounded=1;whiteSpace=wrap;html=1;fontSize=14;align=center;fontStyle=1" vertex="1" parent="4LGN2oHcvjhgaG8_lqXH-57">
          <mxGeometry x="20" y="235" width="100" height="25" as="geometry" />
        </mxCell>
        <mxCell id="4LGN2oHcvjhgaG8_lqXH-67" value="You have 30 seconds left to order" style="text;html=1;strokeColor=none;fillColor=none;align=left;verticalAlign=middle;whiteSpace=wrap;rounded=0;fontSize=14;" vertex="1" parent="4LGN2oHcvjhgaG8_lqXH-57">
          <mxGeometry x="20" y="200" width="260" height="20" as="geometry" />
        </mxCell>
        <mxCell id="4LGN2oHcvjhgaG8_lqXH-68" value="" style="strokeWidth=1;shadow=0;dashed=0;align=center;html=1;shape=mxgraph.mockup.containers.browserWindow;rSize=0;strokeColor=#666666;strokeColor2=#008cff;strokeColor3=#c4c4c4;mainText=,;recursiveResize=0;fontSize=16;" vertex="1" parent="1">
          <mxGeometry x="2970" y="200" width="450" height="350" as="geometry" />
        </mxCell>
        <mxCell id="4LGN2oHcvjhgaG8_lqXH-69" value="Page 1" style="strokeWidth=1;shadow=0;dashed=0;align=center;html=1;shape=mxgraph.mockup.containers.anchor;fontSize=17;fontColor=#666666;align=left;" vertex="1" parent="4LGN2oHcvjhgaG8_lqXH-68">
          <mxGeometry x="60" y="12" width="110" height="26" as="geometry" />
        </mxCell>
        <mxCell id="4LGN2oHcvjhgaG8_lqXH-70" value="https://www.draw.io" style="strokeWidth=1;shadow=0;dashed=0;align=center;html=1;shape=mxgraph.mockup.containers.anchor;rSize=0;fontSize=17;fontColor=#666666;align=left;" vertex="1" parent="4LGN2oHcvjhgaG8_lqXH-68">
          <mxGeometry x="130" y="60" width="250" height="26" as="geometry" />
        </mxCell>
        <mxCell id="4LGN2oHcvjhgaG8_lqXH-71" value="" style="rounded=0;whiteSpace=wrap;html=1;fontSize=16;" vertex="1" parent="4LGN2oHcvjhgaG8_lqXH-68">
          <mxGeometry y="110" width="450" height="40" as="geometry" />
        </mxCell>
        <mxCell id="4LGN2oHcvjhgaG8_lqXH-72" value="GitTix" style="text;html=1;strokeColor=none;fillColor=none;align=center;verticalAlign=middle;whiteSpace=wrap;rounded=0;fontSize=16;" vertex="1" parent="4LGN2oHcvjhgaG8_lqXH-68">
          <mxGeometry x="20" y="120" width="40" height="20" as="geometry" />
        </mxCell>
        <mxCell id="4LGN2oHcvjhgaG8_lqXH-73" value="Sign Out" style="text;html=1;strokeColor=none;fillColor=none;align=center;verticalAlign=middle;whiteSpace=wrap;rounded=0;fontSize=16;" vertex="1" parent="4LGN2oHcvjhgaG8_lqXH-68">
          <mxGeometry x="360" y="120" width="70" height="20" as="geometry" />
        </mxCell>
        <mxCell id="4LGN2oHcvjhgaG8_lqXH-74" value="My Orders" style="text;html=1;strokeColor=none;fillColor=none;align=center;verticalAlign=middle;whiteSpace=wrap;rounded=0;fontSize=16;" vertex="1" parent="4LGN2oHcvjhgaG8_lqXH-68">
          <mxGeometry x="170" y="120" width="110" height="20" as="geometry" />
        </mxCell>
        <mxCell id="4LGN2oHcvjhgaG8_lqXH-75" value="Purchasing Rock Concert" style="text;html=1;strokeColor=none;fillColor=none;align=left;verticalAlign=middle;whiteSpace=wrap;rounded=0;fontSize=19;fontStyle=1" vertex="1" parent="4LGN2oHcvjhgaG8_lqXH-68">
          <mxGeometry x="20" y="165" width="290" height="20" as="geometry" />
        </mxCell>
        <mxCell id="4LGN2oHcvjhgaG8_lqXH-76" value="Sell Tickets" style="text;html=1;strokeColor=none;fillColor=none;align=center;verticalAlign=middle;whiteSpace=wrap;rounded=0;fontSize=16;" vertex="1" parent="4LGN2oHcvjhgaG8_lqXH-68">
          <mxGeometry x="260" y="120" width="110" height="20" as="geometry" />
        </mxCell>
        <mxCell id="4LGN2oHcvjhgaG8_lqXH-77" value="Pay" style="rounded=1;whiteSpace=wrap;html=1;fontSize=14;align=center;fontStyle=1" vertex="1" parent="4LGN2oHcvjhgaG8_lqXH-68">
          <mxGeometry x="20" y="235" width="100" height="25" as="geometry" />
        </mxCell>
        <mxCell id="4LGN2oHcvjhgaG8_lqXH-78" value="You have 30 seconds left to order" style="text;html=1;strokeColor=none;fillColor=none;align=left;verticalAlign=middle;whiteSpace=wrap;rounded=0;fontSize=14;" vertex="1" parent="4LGN2oHcvjhgaG8_lqXH-68">
          <mxGeometry x="20" y="200" width="260" height="20" as="geometry" />
        </mxCell>
        <mxCell id="4LGN2oHcvjhgaG8_lqXH-79" value="" style="rounded=0;whiteSpace=wrap;html=1;fontSize=14;align=left;fillColor=#f5f5f5;strokeColor=#666666;fontColor=#333333;opacity=80;" vertex="1" parent="4LGN2oHcvjhgaG8_lqXH-68">
          <mxGeometry y="110" width="450" height="240" as="geometry" />
        </mxCell>
        <mxCell id="4LGN2oHcvjhgaG8_lqXH-80" value="" style="rounded=0;whiteSpace=wrap;html=1;fontSize=14;align=left;" vertex="1" parent="4LGN2oHcvjhgaG8_lqXH-68">
          <mxGeometry x="140" y="165" width="170" height="135" as="geometry" />
        </mxCell>
        <mxCell id="4LGN2oHcvjhgaG8_lqXH-81" value="Credit Card" style="text;html=1;strokeColor=none;fillColor=none;align=left;verticalAlign=middle;whiteSpace=wrap;rounded=0;fontSize=14;fontStyle=1" vertex="1" parent="4LGN2oHcvjhgaG8_lqXH-68">
          <mxGeometry x="150" y="170" width="120" height="20" as="geometry" />
        </mxCell>
        <mxCell id="4LGN2oHcvjhgaG8_lqXH-82" value="" style="rounded=0;whiteSpace=wrap;html=1;fontSize=14;align=left;" vertex="1" parent="4LGN2oHcvjhgaG8_lqXH-68">
          <mxGeometry x="150" y="193" width="150" height="17" as="geometry" />
        </mxCell>
        <mxCell id="4LGN2oHcvjhgaG8_lqXH-83" value="Expiration" style="text;html=1;strokeColor=none;fillColor=none;align=left;verticalAlign=middle;whiteSpace=wrap;rounded=0;fontSize=14;fontStyle=1" vertex="1" parent="4LGN2oHcvjhgaG8_lqXH-68">
          <mxGeometry x="150" y="215" width="120" height="20" as="geometry" />
        </mxCell>
        <mxCell id="4LGN2oHcvjhgaG8_lqXH-84" value="" style="rounded=0;whiteSpace=wrap;html=1;fontSize=14;align=left;" vertex="1" parent="4LGN2oHcvjhgaG8_lqXH-68">
          <mxGeometry x="150" y="235" width="150" height="17" as="geometry" />
        </mxCell>
        <mxCell id="4LGN2oHcvjhgaG8_lqXH-85" value="Submit" style="rounded=1;whiteSpace=wrap;html=1;fontSize=14;align=center;fontStyle=1" vertex="1" parent="4LGN2oHcvjhgaG8_lqXH-68">
          <mxGeometry x="175" y="266" width="100" height="25" as="geometry" />
        </mxCell>
        <mxCell id="4LGN2oHcvjhgaG8_lqXH-86" value="" style="strokeWidth=1;shadow=0;dashed=0;align=center;html=1;shape=mxgraph.mockup.containers.browserWindow;rSize=0;strokeColor=#666666;strokeColor2=#008cff;strokeColor3=#c4c4c4;mainText=,;recursiveResize=0;fontSize=16;" vertex="1" parent="1">
          <mxGeometry x="3440" y="200" width="450" height="350" as="geometry" />
        </mxCell>
        <mxCell id="4LGN2oHcvjhgaG8_lqXH-87" value="Page 1" style="strokeWidth=1;shadow=0;dashed=0;align=center;html=1;shape=mxgraph.mockup.containers.anchor;fontSize=17;fontColor=#666666;align=left;" vertex="1" parent="4LGN2oHcvjhgaG8_lqXH-86">
          <mxGeometry x="60" y="12" width="110" height="26" as="geometry" />
        </mxCell>
        <mxCell id="4LGN2oHcvjhgaG8_lqXH-88" value="/tickets/new" style="strokeWidth=1;shadow=0;dashed=0;align=center;html=1;shape=mxgraph.mockup.containers.anchor;rSize=0;fontSize=17;fontColor=#666666;align=left;" vertex="1" parent="4LGN2oHcvjhgaG8_lqXH-86">
          <mxGeometry x="130" y="60" width="250" height="26" as="geometry" />
        </mxCell>
        <mxCell id="4LGN2oHcvjhgaG8_lqXH-89" value="" style="rounded=0;whiteSpace=wrap;html=1;fontSize=16;" vertex="1" parent="4LGN2oHcvjhgaG8_lqXH-86">
          <mxGeometry y="110" width="450" height="40" as="geometry" />
        </mxCell>
        <mxCell id="4LGN2oHcvjhgaG8_lqXH-90" value="GitTix" style="text;html=1;strokeColor=none;fillColor=none;align=center;verticalAlign=middle;whiteSpace=wrap;rounded=0;fontSize=16;" vertex="1" parent="4LGN2oHcvjhgaG8_lqXH-86">
          <mxGeometry x="20" y="120" width="40" height="20" as="geometry" />
        </mxCell>
        <mxCell id="4LGN2oHcvjhgaG8_lqXH-91" value="Sign Out" style="text;html=1;strokeColor=none;fillColor=none;align=center;verticalAlign=middle;whiteSpace=wrap;rounded=0;fontSize=16;" vertex="1" parent="4LGN2oHcvjhgaG8_lqXH-86">
          <mxGeometry x="360" y="120" width="70" height="20" as="geometry" />
        </mxCell>
        <mxCell id="4LGN2oHcvjhgaG8_lqXH-92" value="My Orders" style="text;html=1;strokeColor=none;fillColor=none;align=center;verticalAlign=middle;whiteSpace=wrap;rounded=0;fontSize=16;" vertex="1" parent="4LGN2oHcvjhgaG8_lqXH-86">
          <mxGeometry x="170" y="120" width="110" height="20" as="geometry" />
        </mxCell>
        <mxCell id="4LGN2oHcvjhgaG8_lqXH-93" value="Create a Ticket" style="text;html=1;strokeColor=none;fillColor=none;align=left;verticalAlign=middle;whiteSpace=wrap;rounded=0;fontSize=19;fontStyle=1" vertex="1" parent="4LGN2oHcvjhgaG8_lqXH-86">
          <mxGeometry x="20" y="165" width="170" height="20" as="geometry" />
        </mxCell>
        <mxCell id="4LGN2oHcvjhgaG8_lqXH-94" value="Sell Tickets" style="text;html=1;strokeColor=none;fillColor=none;align=center;verticalAlign=middle;whiteSpace=wrap;rounded=0;fontSize=16;" vertex="1" parent="4LGN2oHcvjhgaG8_lqXH-86">
          <mxGeometry x="260" y="120" width="110" height="20" as="geometry" />
        </mxCell>
        <mxCell id="4LGN2oHcvjhgaG8_lqXH-95" value="Title" style="text;html=1;strokeColor=none;fillColor=none;align=left;verticalAlign=middle;whiteSpace=wrap;rounded=0;fontSize=16;" vertex="1" parent="4LGN2oHcvjhgaG8_lqXH-86">
          <mxGeometry x="20" y="200" width="110" height="20" as="geometry" />
        </mxCell>
        <mxCell id="4LGN2oHcvjhgaG8_lqXH-96" value="Price" style="text;html=1;strokeColor=none;fillColor=none;align=left;verticalAlign=middle;whiteSpace=wrap;rounded=0;fontSize=16;" vertex="1" parent="4LGN2oHcvjhgaG8_lqXH-86">
          <mxGeometry x="20" y="250" width="110" height="20" as="geometry" />
        </mxCell>
        <mxCell id="4LGN2oHcvjhgaG8_lqXH-97" value="" style="rounded=0;whiteSpace=wrap;html=1;align=left;" vertex="1" parent="4LGN2oHcvjhgaG8_lqXH-86">
          <mxGeometry x="20" y="220" width="160" height="20" as="geometry" />
        </mxCell>
        <mxCell id="4LGN2oHcvjhgaG8_lqXH-98" value="" style="rounded=0;whiteSpace=wrap;html=1;align=left;" vertex="1" parent="4LGN2oHcvjhgaG8_lqXH-86">
          <mxGeometry x="20" y="270" width="160" height="20" as="geometry" />
        </mxCell>
        <mxCell id="4LGN2oHcvjhgaG8_lqXH-99" value="Submit" style="rounded=1;whiteSpace=wrap;html=1;align=center;" vertex="1" parent="4LGN2oHcvjhgaG8_lqXH-86">
          <mxGeometry x="20" y="300" width="85" height="30" as="geometry" />
        </mxCell>
      </root>
    </mxGraphModel>
  </diagram>
  <diagram id="LCbrezG0UEBkVdHkJdE4" name="02 - routes">
    <mxGraphModel dx="715" dy="352" grid="1" gridSize="10" guides="1" tooltips="1" connect="1" arrows="1" fold="1" page="1" pageScale="1" pageWidth="1920" pageHeight="1200" math="0" shadow="0">
      <root>
        <mxCell id="hCUyVaXj-s0HFNm31AMT-0" />
        <mxCell id="hCUyVaXj-s0HFNm31AMT-1" parent="hCUyVaXj-s0HFNm31AMT-0" />
        <mxCell id="hCUyVaXj-s0HFNm31AMT-2" value="Route" style="rounded=0;whiteSpace=wrap;html=1;fontSize=19;fillColor=#dae8fc;strokeColor=#6c8ebf;fontStyle=1" vertex="1" parent="hCUyVaXj-s0HFNm31AMT-1">
          <mxGeometry x="490" y="220" width="220" height="50" as="geometry" />
        </mxCell>
        <mxCell id="hCUyVaXj-s0HFNm31AMT-3" value="Goal" style="rounded=0;whiteSpace=wrap;html=1;fontSize=19;fillColor=#dae8fc;strokeColor=#6c8ebf;fontStyle=1" vertex="1" parent="hCUyVaXj-s0HFNm31AMT-1">
          <mxGeometry x="930" y="220" width="220" height="50" as="geometry" />
        </mxCell>
        <mxCell id="hCUyVaXj-s0HFNm31AMT-4" value="/auth/signup" style="rounded=0;whiteSpace=wrap;html=1;fontSize=14;fillColor=#f5f5f5;strokeColor=#666666;fontColor=#333333;" vertex="1" parent="hCUyVaXj-s0HFNm31AMT-1">
          <mxGeometry x="490" y="310" width="220" height="40" as="geometry" />
        </mxCell>
        <mxCell id="hCUyVaXj-s0HFNm31AMT-5" value="Show sign up form" style="rounded=0;whiteSpace=wrap;html=1;fontSize=14;fillColor=#f5f5f5;strokeColor=#666666;fontColor=#333333;" vertex="1" parent="hCUyVaXj-s0HFNm31AMT-1">
          <mxGeometry x="930" y="310" width="220" height="40" as="geometry" />
        </mxCell>
        <mxCell id="hCUyVaXj-s0HFNm31AMT-6" value="File in Pages Dir" style="rounded=0;whiteSpace=wrap;html=1;fontSize=19;fillColor=#dae8fc;strokeColor=#6c8ebf;fontStyle=1" vertex="1" parent="hCUyVaXj-s0HFNm31AMT-1">
          <mxGeometry x="710" y="220" width="220" height="50" as="geometry" />
        </mxCell>
        <mxCell id="hCUyVaXj-s0HFNm31AMT-7" value="/auth/signup.js" style="rounded=0;whiteSpace=wrap;html=1;fontSize=14;fillColor=#f5f5f5;strokeColor=#666666;fontColor=#333333;" vertex="1" parent="hCUyVaXj-s0HFNm31AMT-1">
          <mxGeometry x="710" y="310" width="220" height="40" as="geometry" />
        </mxCell>
        <mxCell id="hCUyVaXj-s0HFNm31AMT-8" value="/auth/signin" style="rounded=0;whiteSpace=wrap;html=1;fontSize=14;fillColor=#f5f5f5;strokeColor=#666666;fontColor=#333333;" vertex="1" parent="hCUyVaXj-s0HFNm31AMT-1">
          <mxGeometry x="490" y="270" width="220" height="40" as="geometry" />
        </mxCell>
        <mxCell id="hCUyVaXj-s0HFNm31AMT-9" value="Show sign in form" style="rounded=0;whiteSpace=wrap;html=1;fontSize=14;fillColor=#f5f5f5;strokeColor=#666666;fontColor=#333333;" vertex="1" parent="hCUyVaXj-s0HFNm31AMT-1">
          <mxGeometry x="930" y="270" width="220" height="40" as="geometry" />
        </mxCell>
        <mxCell id="hCUyVaXj-s0HFNm31AMT-10" value="/auth/signin.js" style="rounded=0;whiteSpace=wrap;html=1;fontSize=14;fillColor=#f5f5f5;strokeColor=#666666;fontColor=#333333;" vertex="1" parent="hCUyVaXj-s0HFNm31AMT-1">
          <mxGeometry x="710" y="270" width="220" height="40" as="geometry" />
        </mxCell>
        <mxCell id="hCUyVaXj-s0HFNm31AMT-11" value="/auth/signout" style="rounded=0;whiteSpace=wrap;html=1;fontSize=14;fillColor=#f5f5f5;strokeColor=#666666;fontColor=#333333;" vertex="1" parent="hCUyVaXj-s0HFNm31AMT-1">
          <mxGeometry x="490" y="350" width="220" height="40" as="geometry" />
        </mxCell>
        <mxCell id="hCUyVaXj-s0HFNm31AMT-12" value="Sign out" style="rounded=0;whiteSpace=wrap;html=1;fontSize=14;fillColor=#f5f5f5;strokeColor=#666666;fontColor=#333333;" vertex="1" parent="hCUyVaXj-s0HFNm31AMT-1">
          <mxGeometry x="930" y="350" width="220" height="40" as="geometry" />
        </mxCell>
        <mxCell id="hCUyVaXj-s0HFNm31AMT-13" value="/auth/signout.js" style="rounded=0;whiteSpace=wrap;html=1;fontSize=14;fillColor=#f5f5f5;strokeColor=#666666;fontColor=#333333;" vertex="1" parent="hCUyVaXj-s0HFNm31AMT-1">
          <mxGeometry x="710" y="350" width="220" height="40" as="geometry" />
        </mxCell>
        <mxCell id="hCUyVaXj-s0HFNm31AMT-14" value="/" style="rounded=0;whiteSpace=wrap;html=1;fontSize=14;" vertex="1" parent="hCUyVaXj-s0HFNm31AMT-1">
          <mxGeometry x="490" y="390" width="220" height="40" as="geometry" />
        </mxCell>
        <mxCell id="hCUyVaXj-s0HFNm31AMT-15" value="Show list of all tickets" style="rounded=0;whiteSpace=wrap;html=1;fontSize=14;" vertex="1" parent="hCUyVaXj-s0HFNm31AMT-1">
          <mxGeometry x="930" y="390" width="220" height="40" as="geometry" />
        </mxCell>
        <mxCell id="hCUyVaXj-s0HFNm31AMT-16" value="/index.js" style="rounded=0;whiteSpace=wrap;html=1;fontSize=14;" vertex="1" parent="hCUyVaXj-s0HFNm31AMT-1">
          <mxGeometry x="710" y="390" width="220" height="40" as="geometry" />
        </mxCell>
        <mxCell id="hCUyVaXj-s0HFNm31AMT-17" value="/tickets/new" style="rounded=0;whiteSpace=wrap;html=1;fontSize=14;" vertex="1" parent="hCUyVaXj-s0HFNm31AMT-1">
          <mxGeometry x="490" y="430" width="220" height="40" as="geometry" />
        </mxCell>
        <mxCell id="hCUyVaXj-s0HFNm31AMT-18" value="Form to create a new ticket" style="rounded=0;whiteSpace=wrap;html=1;fontSize=14;" vertex="1" parent="hCUyVaXj-s0HFNm31AMT-1">
          <mxGeometry x="930" y="430" width="220" height="40" as="geometry" />
        </mxCell>
        <mxCell id="hCUyVaXj-s0HFNm31AMT-19" value="/tickets/new.js" style="rounded=0;whiteSpace=wrap;html=1;fontSize=14;" vertex="1" parent="hCUyVaXj-s0HFNm31AMT-1">
          <mxGeometry x="710" y="430" width="220" height="40" as="geometry" />
        </mxCell>
        <mxCell id="bepZd7AIYpRiLanpSrXa-0" value="/tickets/:ticketId" style="rounded=0;whiteSpace=wrap;html=1;fontSize=14;" vertex="1" parent="hCUyVaXj-s0HFNm31AMT-1">
          <mxGeometry x="490" y="470" width="220" height="40" as="geometry" />
        </mxCell>
        <mxCell id="bepZd7AIYpRiLanpSrXa-1" value="Details about a specific ticket" style="rounded=0;whiteSpace=wrap;html=1;fontSize=14;" vertex="1" parent="hCUyVaXj-s0HFNm31AMT-1">
          <mxGeometry x="930" y="470" width="220" height="40" as="geometry" />
        </mxCell>
        <mxCell id="bepZd7AIYpRiLanpSrXa-2" value="/tickets/[ticketId].js" style="rounded=0;whiteSpace=wrap;html=1;fontSize=14;" vertex="1" parent="hCUyVaXj-s0HFNm31AMT-1">
          <mxGeometry x="710" y="470" width="220" height="40" as="geometry" />
        </mxCell>
        <mxCell id="bepZd7AIYpRiLanpSrXa-3" value="/orders/:orderid" style="rounded=0;whiteSpace=wrap;html=1;fontSize=14;" vertex="1" parent="hCUyVaXj-s0HFNm31AMT-1">
          <mxGeometry x="490" y="510" width="220" height="40" as="geometry" />
        </mxCell>
        <mxCell id="bepZd7AIYpRiLanpSrXa-4" value="Show info about an order + payment button" style="rounded=0;whiteSpace=wrap;html=1;fontSize=14;" vertex="1" parent="hCUyVaXj-s0HFNm31AMT-1">
          <mxGeometry x="930" y="510" width="220" height="40" as="geometry" />
        </mxCell>
        <mxCell id="bepZd7AIYpRiLanpSrXa-5" value="/orders/[orderId].js" style="rounded=0;whiteSpace=wrap;html=1;fontSize=14;" vertex="1" parent="hCUyVaXj-s0HFNm31AMT-1">
          <mxGeometry x="710" y="510" width="220" height="40" as="geometry" />
        </mxCell>
      </root>
    </mxGraphModel>
  </diagram>
  <diagram id="q5GkjEWHVDg3xWl6fbTK" name="03 - arch">
    <mxGraphModel dx="715" dy="352" grid="1" gridSize="10" guides="1" tooltips="1" connect="1" arrows="1" fold="1" page="1" pageScale="1" pageWidth="1920" pageHeight="1200" math="0" shadow="0">
      <root>
        <mxCell id="nZmbZ9Tx8ZrIu5M-BD1B-0" />
        <mxCell id="nZmbZ9Tx8ZrIu5M-BD1B-1" parent="nZmbZ9Tx8ZrIu5M-BD1B-0" />
        <mxCell id="MWEBvEGAhxJbibmg7WjD-1" style="edgeStyle=orthogonalEdgeStyle;rounded=0;orthogonalLoop=1;jettySize=auto;html=1;exitX=0.5;exitY=1;exitDx=0;exitDy=0;fontSize=24;" edge="1" parent="nZmbZ9Tx8ZrIu5M-BD1B-1" source="nZmbZ9Tx8ZrIu5M-BD1B-2" target="nZmbZ9Tx8ZrIu5M-BD1B-3">
          <mxGeometry relative="1" as="geometry" />
        </mxCell>
        <mxCell id="MWEBvEGAhxJbibmg7WjD-2" style="edgeStyle=orthogonalEdgeStyle;rounded=0;orthogonalLoop=1;jettySize=auto;html=1;exitX=0.5;exitY=1;exitDx=0;exitDy=0;fontSize=24;" edge="1" parent="nZmbZ9Tx8ZrIu5M-BD1B-1" source="nZmbZ9Tx8ZrIu5M-BD1B-2">
          <mxGeometry relative="1" as="geometry">
            <mxPoint x="800" y="340" as="targetPoint" />
          </mxGeometry>
        </mxCell>
        <mxCell id="MWEBvEGAhxJbibmg7WjD-3" style="edgeStyle=orthogonalEdgeStyle;rounded=0;orthogonalLoop=1;jettySize=auto;html=1;exitX=0.5;exitY=1;exitDx=0;exitDy=0;fontSize=24;" edge="1" parent="nZmbZ9Tx8ZrIu5M-BD1B-1" source="nZmbZ9Tx8ZrIu5M-BD1B-2">
          <mxGeometry relative="1" as="geometry">
            <mxPoint x="1010" y="340" as="targetPoint" />
          </mxGeometry>
        </mxCell>
        <mxCell id="nZmbZ9Tx8ZrIu5M-BD1B-2" value="App Component" style="rounded=0;whiteSpace=wrap;html=1;fontSize=24;fillColor=#dae8fc;strokeColor=#6c8ebf;fontStyle=1" vertex="1" parent="nZmbZ9Tx8ZrIu5M-BD1B-1">
          <mxGeometry x="710" y="170" width="180" height="90" as="geometry" />
        </mxCell>
        <mxCell id="nZmbZ9Tx8ZrIu5M-BD1B-3" value="LandingPage Component" style="rounded=0;whiteSpace=wrap;html=1;fontSize=24;fillColor=#dae8fc;strokeColor=#6c8ebf;fontStyle=1" vertex="1" parent="nZmbZ9Tx8ZrIu5M-BD1B-1">
          <mxGeometry x="500" y="340" width="180" height="90" as="geometry" />
        </mxCell>
        <mxCell id="nqce0jUT9shhrrxR_f_7-0" value="getInitialProps" style="rounded=0;whiteSpace=wrap;html=1;fontSize=16;fillColor=#ffe6cc;strokeColor=#d79b00;" vertex="1" parent="nZmbZ9Tx8ZrIu5M-BD1B-1">
          <mxGeometry x="890" y="170" width="120" height="40" as="geometry" />
        </mxCell>
        <mxCell id="nqce0jUT9shhrrxR_f_7-1" value="getInitialProps" style="rounded=0;whiteSpace=wrap;html=1;fontSize=16;fillColor=#ffe6cc;strokeColor=#d79b00;" vertex="1" parent="nZmbZ9Tx8ZrIu5M-BD1B-1">
          <mxGeometry x="500" y="430" width="120" height="40" as="geometry" />
        </mxCell>
      </root>
    </mxGraphModel>
  </diagram>
  <diagram id="u9VBUdCH67kpbjFw7XmN" name="04 - getprops">
    <mxGraphModel dx="699" dy="344" grid="1" gridSize="10" guides="1" tooltips="1" connect="1" arrows="1" fold="1" page="1" pageScale="1" pageWidth="1920" pageHeight="1200" math="0" shadow="0">
      <root>
        <mxCell id="cNUMpTnwx0AAeihxbllj-0" />
        <mxCell id="cNUMpTnwx0AAeihxbllj-1" parent="cNUMpTnwx0AAeihxbllj-0" />
        <mxCell id="EBeqkzPYYZhQ4HbV8Q5f-0" style="edgeStyle=orthogonalEdgeStyle;rounded=0;orthogonalLoop=1;jettySize=auto;html=1;exitX=0.5;exitY=1;exitDx=0;exitDy=0;fontSize=24;" edge="1" parent="cNUMpTnwx0AAeihxbllj-1" source="EBeqkzPYYZhQ4HbV8Q5f-3" target="EBeqkzPYYZhQ4HbV8Q5f-4">
          <mxGeometry relative="1" as="geometry" />
        </mxCell>
        <mxCell id="EBeqkzPYYZhQ4HbV8Q5f-3" value="App Component" style="rounded=0;whiteSpace=wrap;html=1;fontSize=24;fillColor=#dae8fc;strokeColor=#6c8ebf;fontStyle=1" vertex="1" parent="cNUMpTnwx0AAeihxbllj-1">
          <mxGeometry x="530" y="160" width="180" height="90" as="geometry" />
        </mxCell>
        <mxCell id="EBeqkzPYYZhQ4HbV8Q5f-4" value="LandingPage Component" style="rounded=0;whiteSpace=wrap;html=1;fontSize=24;fillColor=#dae8fc;strokeColor=#6c8ebf;fontStyle=1" vertex="1" parent="cNUMpTnwx0AAeihxbllj-1">
          <mxGeometry x="530" y="330" width="180" height="90" as="geometry" />
        </mxCell>
        <mxCell id="EBeqkzPYYZhQ4HbV8Q5f-7" value="User navigates to /" style="rounded=0;whiteSpace=wrap;html=1;fontSize=16;" vertex="1" parent="cNUMpTnwx0AAeihxbllj-1">
          <mxGeometry x="160" y="160" width="300" height="40" as="geometry" />
        </mxCell>
        <mxCell id="EBeqkzPYYZhQ4HbV8Q5f-8" value="" style="endArrow=classic;html=1;fontSize=18;" edge="1" parent="cNUMpTnwx0AAeihxbllj-1">
          <mxGeometry width="50" height="50" relative="1" as="geometry">
            <mxPoint x="150" y="160" as="sourcePoint" />
            <mxPoint x="150" y="440" as="targetPoint" />
          </mxGeometry>
        </mxCell>
        <mxCell id="EBeqkzPYYZhQ4HbV8Q5f-9" value="Next decides to show LandingPage component" style="rounded=0;whiteSpace=wrap;html=1;fontSize=16;" vertex="1" parent="cNUMpTnwx0AAeihxbllj-1">
          <mxGeometry x="160" y="210" width="300" height="40" as="geometry" />
        </mxCell>
        <mxCell id="EBeqkzPYYZhQ4HbV8Q5f-11" value="Next calls the App&#39;s getInitialProps function" style="rounded=0;whiteSpace=wrap;html=1;fontSize=16;" vertex="1" parent="cNUMpTnwx0AAeihxbllj-1">
          <mxGeometry x="160" y="260" width="300" height="40" as="geometry" />
        </mxCell>
        <mxCell id="EBeqkzPYYZhQ4HbV8Q5f-12" value="Next renders the App component with data from getInitialProps + LandingPage Component" style="rounded=0;whiteSpace=wrap;html=1;fontSize=16;" vertex="1" parent="cNUMpTnwx0AAeihxbllj-1">
          <mxGeometry x="160" y="360" width="300" height="70" as="geometry" />
        </mxCell>
        <mxCell id="EBeqkzPYYZhQ4HbV8Q5f-13" value="We manually invoke the LandingPage&#39;s getInitialProps function" style="rounded=0;whiteSpace=wrap;html=1;fontSize=16;" vertex="1" parent="cNUMpTnwx0AAeihxbllj-1">
          <mxGeometry x="160" y="310" width="300" height="40" as="geometry" />
        </mxCell>
        <mxCell id="AUkrO7_i26OfUL9Us8Jw-0" value="getInitialProps" style="rounded=0;whiteSpace=wrap;html=1;fontSize=16;fillColor=#ffe6cc;strokeColor=#d79b00;" vertex="1" parent="cNUMpTnwx0AAeihxbllj-1">
          <mxGeometry x="710" y="160" width="120" height="40" as="geometry" />
        </mxCell>
        <mxCell id="AUkrO7_i26OfUL9Us8Jw-1" value="getInitialProps" style="rounded=0;whiteSpace=wrap;html=1;fontSize=16;fillColor=#ffe6cc;strokeColor=#d79b00;" vertex="1" parent="cNUMpTnwx0AAeihxbllj-1">
          <mxGeometry x="530" y="420" width="120" height="40" as="geometry" />
        </mxCell>
      </root>
    </mxGraphModel>
  </diagram>
</mxfile>
